<?xml version="1.0" encoding="utf-8"?>
<!-- Generator: Adobe Illustrator 22.0.0, SVG Export Plug-In . SVG Version: 6.00 Build 0)  -->
<svg version="1.1" id="Layer_1" xmlns="http://www.w3.org/2000/svg" xmlns:xlink="http://www.w3.org/1999/xlink" x="0px" y="0px"
	 viewBox="0 0 214.3 42" style="enable-background:new 0 0 214.3 42;" xml:space="preserve">
<style type="text/css">
	.st0{fill:#1896F0;}
</style>
<path class="st0" d="M14.7,4.6V17c1.2-1,3.9-2.9,7.1-2.9c4.3,0,6.6,2.9,6.6,7.6v11.1l2.9,1v3.4H19.8v-3.4l2.2-1V22.7
	c0-2.1-0.8-3.4-2.8-3.4c-2.4,0-4.6,2.2-4.6,2.2v11.3l2.2,1v3.4H5v-3.4l3.4-1V9.2L5,8.3V5L14.7,4.6z M48,14.1
	c6.8,0,10.6,4.1,10.6,11.3c0,7.6-4.4,12.2-11.2,12.2c-6.8,0-10.7-3.6-10.7-11.5C36.7,18.5,41.2,14.1,48,14.1z M47.8,19.1
	c-3.1,0-4.6,1.7-4.6,6.7c0,4.6,1.3,6.7,4.4,6.7c3,0,4.5-1.9,4.5-6.9C52.1,21.4,50.8,19.1,47.8,19.1z M82.3,30.4l2.1,3.7
	c-1.1,0.9-4.3,3.6-9,3.6c-6.9,0-10.9-4.3-10.9-11.4c0-7.5,4.2-12.1,11.6-12.1c3.6,0,7.4,1.5,7.4,1.5l-0.2,6.9h-3.8l-0.6-3
	c0,0-1.2-0.3-2.9-0.3c-3,0-4.9,2-4.9,6.2c0,4.6,1.8,7.2,5.3,7.2C79.2,32.6,81,31.1,82.3,30.4z M92,7.6c0-2.4,1.7-3.8,3.6-3.8
	c2.2,0,3.5,1.1,3.5,3.8c0,2.5-1.8,3.8-3.5,3.8C93.4,11.4,92,10.1,92,7.6z M99.1,32.8l2.9,1v3.4H89.4v-3.4l3.4-1V19.1l-3.4-1v-3.4
	l9.7-0.2V32.8z M116.6,14.5l0.3,2.9c0,0,4-3.2,7.7-3.2c4.1,0,6.4,2.9,6.4,7.5v11.1l2.9,1v3.4h-11.6v-3.4l2.3-1v-10
	c0-1.9-1.1-3.4-2.9-3.4c-2.6,0-4.5,2.4-4.5,2.4v11l2.3,1v3.4h-12v-3.4l3.4-1V19.1l-3.4-1v-3.4L116.6,14.5z M159.9,27.2h-13.9
	c0.3,3.4,2.2,5.3,5.1,5.3c3.5,0,7.1-2,7.1-2l1.8,3.5c0,0-4.2,3.5-9.6,3.5c-7.2,0-10.9-4.2-10.9-11.3c0-7.3,4.2-12.2,11.2-12.2
	c6.3,0,9.5,3.9,9.5,9.9C160.1,25.6,159.9,27.1,159.9,27.2z M146,23.3h7.6c0-2.4-1-4.2-3.4-4.2C147.8,19.1,146.4,20.9,146,23.3z"/>
<path d="M191.2,25.2L191,24c-0.3,0.3-1.4,1.4-3.3,1.4c-3.1,0-4.5-2.2-4.5-5.9c0-4.1,2-6.4,6-6.4c0.5,0,1.2,0.1,1.6,0.2v-2.8
	l-1.8-0.4V8.3l5.1-0.2v14.7l1.8,0.4V25L191.2,25.2z M190.8,21.5v-5.5c-0.4-0.2-1.1-0.3-1.7-0.3c-1.9,0-2.5,1.4-2.5,3.6
	c0,2.2,0.6,3.4,2.1,3.4C190.1,22.8,190.8,21.5,190.8,21.5z M208.3,15.4l-5.5,7.4h3.2l0.4-1.9h2v4.3h-9.6v-2l5.6-7.4h-3l-0.3,1.6h-2
	v-4h9.2V15.4z"/>
</svg>
